HIERARCHY
ROOT base
{
	OFFSET 0.0 0.0 0.0
	CHANNELS 6 Xposition Yposition Zposition Zrotation Yrotation Xrotation
	JOINT root
	{
		OFFSET 0 0 0
		CHANNELS 6 Xposition Yposition Zposition Zrotation Yrotation Xrotation
		JOINT chest
		{
			OFFSET 0 4.72302 0
			CHANNELS 3 Zrotation Yrotation Xrotation
			JOINT neck
			{
				OFFSET 0 4.47788 0
				CHANNELS 3 Zrotation Yrotation Xrotation
				End Site
				{
					OFFSET 0.0 0.0 0.0
				}
			}
			JOINT right_shoulder
			{
				OFFSET -0.481 4.87 3.6622
				CHANNELS 3 Zrotation Yrotation Xrotation
				JOINT right_elbow
				{
					OFFSET 0 -5.49576 0
					CHANNELS 3 Zrotation Yrotation Xrotation
					JOINT right_wrist
					{
						OFFSET 0 -5.17894 0
						CHANNELS 3 Zrotation Yrotation Xrotation
						End Site
						{
							OFFSET 0.0 0.0 0.0
						}
					}
				}
			}
			JOINT left_shoulder
			{
				OFFSET -0.481 4.87 -3.6622
				CHANNELS 3 Zrotation Yrotation Xrotation
				JOINT left_elbow
				{
					OFFSET 0 -5.49576 0
					CHANNELS 3 Zrotation Yrotation Xrotation
					JOINT left_wrist
					{
						OFFSET 0 -5.17894 0
						CHANNELS 3 Zrotation Yrotation Xrotation
						End Site
						{
							OFFSET 0.0 0.0 0.0
						}
					}
				}
			}
		}
		JOINT right_hip
		{
			OFFSET 0 0 1.69774
			CHANNELS 3 Zrotation Yrotation Xrotation
			JOINT right_knee
			{
				OFFSET 0 -8.43092 0
				CHANNELS 3 Zrotation Yrotation Xrotation
				JOINT right_ankle
				{
					OFFSET 0 -8.1974 0
					CHANNELS 3 Zrotation Yrotation Xrotation
					End Site
					{
						OFFSET 0.0 0.0 0.0
					}
				}
			}
		}
		JOINT left_hip
		{
			OFFSET 0 0 -1.69774
			CHANNELS 3 Zrotation Yrotation Xrotation
			JOINT left_knee
			{
				OFFSET 0 -8.43092 0
				CHANNELS 3 Zrotation Yrotation Xrotation
				JOINT left_ankle
				{
					OFFSET 0 -8.1974 0
					CHANNELS 3 Zrotation Yrotation Xrotation
					End Site
					{
						OFFSET 0.0 0.0 0.0
					}
				}
			}
		}
	}
	JOINT red_arrow
	{
		OFFSET 0 0 0
		CHANNELS 3 Zrotation Yrotation Xrotation
		End Site
		{
			OFFSET 0.0 0.0 0.0
		}
	}
	JOINT blue_arrow
	{
		OFFSET 0 0 0
		CHANNELS 3 Zrotation Yrotation Xrotation
		End Site
		{
			OFFSET 0.0 0.0 0.0
		}
	}
}
MOTION
Frames: 16
Frame Time: 0.0333333333333333
205.880098348856 0 13.2099265147001 0 -9.45854399619871 0 0 17.2178880095482 0 -6.1919817460761 -6.25827555214464 -0.0206742897585419 1.38247244603577 -0.350086245805068 0.88268740174618 4.13753711773283 0.796760268303113 1.65875445119403 7.65103870593176 31.1513064210171 -20.8248026916557 36.8204091739473 0 0 0 0 0 -8.27314962284058 22.765227871918 13.5669127141239 -0.00212427033223912 0 0 0 0 0 -5.7717003223171 -7.75828765993592 4.48026073055266 -1.05439967422843 0 0 12.149866052113 16.6102269104486 -2.18393553338574 45.8149476758791 11.4846577267519 7.38255979062906 -44.0016222559746 0 0 20.8446309296224 -6.43940722577734 -0.607695719975208 0 0 0 0 0 0
206.389266034961 0 13.2909068461508 0 -9.78603744228946 0 0 17.1068348169327 0 -7.2151146132621 -6.17348620196789 -0.110758784770231 0.885332831156402 -0.727670098684144 0.493205740496709 3.59764457318926 1.22685272280562 1.32746412926094 8.37312750372683 30.7488063479879 -21.2862973412893 39.6280096586999 0 0 0 0 0 -10.3709131683764 23.7358677371788 12.0831671048115 -0.00428166483079183 0 0 0 0 0 -7.02273390029279 -8.09531120878099 4.45840415936499 -0.139963649502519 0 0 13.5239915571335 17.308867296199 -1.56066548433731 46.0900627070705 12.5939800175962 6.32914590165041 -35.2115410394779 0 0 19.2148092954371 -5.30434017755373 -0.520168033843728 0 0 0 0 0 0
206.922648760676 0 13.3441744726151 0 -10.1155645732574 0 0 16.9982882857323 0 -8.26326379366076 -6.19652280072321 0.0708621134086039 0.299733507752749 -0.963865512567688 0.0670386243927834 2.73624033909481 1.47048240746999 0.878726215180284 8.97768360509999 30.2394136003645 -21.998568349692 42.97082035172 0 0 0 0 0 -11.5360241895372 23.6944379151712 10.5267114650109 -0.0138066562793022 0 0 0 0 0 -7.28152979539162 -7.56134592844735 3.89648681674581 -0.993786547821331 0 0 15.4980195022859 17.0993265918944 -1.10403337979156 45.4549033343181 13.541796478396 4.98978704914145 -28.8440664498823 0 0 16.3112209542577 -4.01228255518287 -0.255184205393587 0 0 0 0 0 0
207.481463798881 0 13.39870121032 0 -10.4373630595135 0 0 16.9079145431519 0 -9.24294888705696 -6.03537544405121 0.261689888309155 -0.751500531381112 -1.0718783744764 -0.497508584494942 1.66388526210443 1.60132054396683 0.381947106735648 9.55450921814443 29.0334935247703 -22.1795062945819 45.8682480693419 0 0 0 0 0 -11.9495201713026 22.6246750131817 8.90748111254428 -0.0363986650563797 0 0 0 0 0 -6.78161447146187 -6.29092265225534 3.23981290913399 -3.54030539942764 0 0 17.2898146242524 15.9114517183922 -1.21226969262336 43.7800302697057 14.3230432801205 3.40155427448674 -23.7794726425814 0 0 12.0404992046628 -2.78573373249684 -0.00862510453009865 0 0 0 0 0 0
208.072822520137 0 13.4703222721815 0 -10.7384831122511 0 0 16.8299675583839 0 -10.0140692738142 -5.63468296831589 0.298658530659241 -2.47523529729032 -1.09499399927063 -1.18414356750397 0.38552739117999 1.62747899585827 -0.204293375679696 9.94644357850409 27.4739636111212 -22.0302216891786 48.0101339213554 0 0 0 0 0 -11.7152733426035 20.2496286097589 7.14755879466648 -0.0746601708273879 0 0 0 0 0 -5.71294944527993 -4.97296625198227 2.77758402163965 -7.91245484211607 0 0 18.5741828884332 14.3795981770875 -1.84463345017399 41.3514726789715 14.7789770745425 1.74716776822157 -20.0029261542452 0 0 6.40101917616594 -1.75750147450471 0.181842343771575 0 0 0 0 0 0
208.753311491013 0 13.5844956278801 0 -10.9961845852003 0 0 16.7351555585861 0 -10.4637885798206 -4.81528758194513 0.0644663636916251 -3.73384277283091 -0.87519166910453 -1.65838047897882 -0.916668386036925 1.34221287541132 -0.702256822024637 9.73874808783911 25.322473119949 -21.4316656870232 49.3638705846628 0 0 0 0 0 -10.7286375428106 18.3178155296688 6.12804515137512 -1.00192557282481E-05 0 0 0 0 0 -5.56884444050666 -5.63620060220827 2.64309640692053 -11.9709916667517 0 0 18.6600108766665 14.3262133687967 -2.45401891626143 38.6457069350757 14.6394195219159 0.296130205037021 -18.5340342090787 0 0 2.34253468696815 -1.16387614382912 0.86416175063939 0 0 0 0 0 0
209.549743658304 0 13.7053815945983 0 -11.1760160549507 0 0 16.6507358431816 0 -9.97739615833328 -3.36524256763705 0.0647035237440678 -4.92979343071611 -1.19171970563259 -2.20616148194179 -2.55247134441938 1.06963870506101 -1.47373096042329 9.55754803085324 24.4630251598501 -21.279301459751 47.7530046198611 0 0 0 0 0 -9.46325863472273 15.5145245264314 5.1871561695219 -0.000429106196880305 0 0 0 0 0 -6.11523006250661 -6.50818523564856 2.2660712718588 -17.0429612245826 0 0 16.97322226936 13.5676169182623 -3.69945231916238 35.7822396148462 13.0722890201175 -1.39772063254512 -18.4719443744287 0 0 -6.97636998786536 -1.84329306381679 7.52126216802226 0 0 0 0 0 0
210.309985473752 0 13.7614692941308 0 -11.2577622157411 0 0 16.7835111379623 0 -10.4689718114616 -1.5273343686983 0.740514451114636 -4.50191109498898 -1.60142162833166 -2.40748436507237 -3.18192062385079 0.820125964129525 -1.92496626844482 9.12733489862626 21.6779859244075 -19.9185888062973 47.6950572949427 0 0 0 0 0 -8.56597497949398 14.8041192698487 4.57817969940959 -3.71145054836071E-05 0 0 0 0 0 -3.64140149084624 -3.87235995061435 1.70994959499795 -24.1302950640153 0 0 8.87187374206898 9.86888731556714 -6.8111545233903 33.9736589890633 11.667924303391 -3.3703387940395 -19.7319981630802 0 0 -3.75997115167738 -1.59933602891851 7.28557902125762 0 0 0 0 0 0
211.094329473376 0 13.8133872419596 0 -11.3014545266368 0 0 16.947261941433 0 -10.5908901998278 -0.816013818931673 1.19339795633828 -3.39968853152427 -1.3280070794767 -1.86666543369905 -3.53547058930369 0.557554208073369 -1.84364431531224 8.55133882972038 17.9580475250292 -17.7140827940297 46.6336254073552 0 0 0 0 0 -6.97553514241519 11.692131399553 3.67741288870023 0.0315483236111716 0 0 0 0 0 0.617184118137256 0.454884594683784 1.23457480888192 -33.8788789248546 0 0 -6.00890612121161 10.5659632690928 -9.56295426108147 30.9347963297659 10.5573587692244 -4.7396117314322 -19.2134826446914 0 0 -1.25467993578562 -1.04617415919548 7.0933637185858 0 0 0 0 0 0
211.887473186851 0 13.8784787662327 0 -11.3105854472569 0 0 17.0670673131943 0 -9.76433820466118 -0.170974306053349 1.58073119304096 -3.04386115420607 -1.2369411596328 -1.49160686735898 -2.50912905427506 0.445899455182876 -1.06631541243548 7.74513161364134 15.4041858644448 -16.2328131236037 43.8325511683547 0 0 0 0 0 -4.54151097922981 6.87940803640462 2.81603684109698 1.50918931421761 0 0 0 0 0 4.73496982563618 3.67748177749705 0.872246230704942 -43.9402461760928 0 0 -17.2316566797834 11.8466280403275 -5.74223188776821 27.226031169254 9.22689568834059 -5.94232935103999 -19.1021659291458 0 0 1.45376714639548 -0.373334723578793 6.91460314141209 0 0 0 0 0 0
212.651071545482 0 13.9671398028731 0 -11.2878856907368 0 0 17.1555715560913 0 -8.77659533135979 0.426245434051916 1.80550742431097 -2.43110282722295 -1.11111463268073 -1.19068186715547 -1.18369262522547 0.380252045129069 -0.358625305181719 6.71562717627467 13.009344649486 -14.6602785169067 39.3980440195347 0 0 0 0 0 -1.78816113762785 1.40203714938266 2.70373266148325 4.01163263494471 0 0 0 0 0 8.95331649796156 5.38960609637737 0.447524587035934 -54.7532791605855 0 0 -20.9427473648615 11.5411498155003 -3.17984636220251 23.4927630045209 7.99665061907795 -6.78581026326655 -18.9327960207497 0 0 4.01267232488686 0.0429311365183241 6.75375076978506 0 0 0 0 0 0
213.359175035357 0 14.0789932176471 0 -11.2443268728188 0 0 17.2202242255211 0 -7.82259432731415 0.81991699040146 1.74388351800131 -1.81526383092944 -0.930673859081796 -0.831746380035408 -0.100621970299945 0.361531193210603 0.143612074849346 5.65054305451072 11.7692146412233 -14.0901643826947 34.8462488622873 0 0 0 0 0 1.107214294451 -4.56037720491082 3.82112839710743 7.23075842049284 0 0 0 0 0 13.3730469300826 6.64646605410997 0.0726874587155798 -65.6631437369415 0 0 -19.7890280971137 9.78569979548527 -1.32574274904513 20.0350479812978 6.75337334982555 -7.10622764005924 -18.727567619211 0 0 6.36533088460505 0.484085584257628 6.54075568461288 0 0 0 0 0 0
214.030766487122 0 14.2339833088219 0 -11.1649288775249 0 0 17.2625685453415 0 -6.8571639478352 1.49777592288485 1.25808164753132 -1.22151100631928 -0.78400977114662 -0.509174990488045 0.704289566268225 0.351998526905752 0.485561761665045 4.59878503096987 10.7360423736345 -13.6030291024453 29.4070926035448 0 0 0 0 0 3.45950031597066 -9.86621521072357 5.66054399236968 10.7321080494327 0 0 0 0 0 17.622932378741 6.72058443476044 -0.330050754071626 -75.0706364883668 0 0 -15.2352730608533 7.32048115164008 -0.407905362867864 16.8722146643198 5.66695759482287 -6.77319657330834 -18.8588592229843 0 0 8.7299449006905 0.333857589796225 6.23182140934791 0 0 0 0 0 0
214.687971358001 0 14.4283152870834 0 -11.0108691760876 0 0 17.2799340009689 0 -5.44128432008468 2.91396714163482 0.523062748906643 -1.50420338363918 -0.696081056712771 -0.37999555791489 1.69662828677747 0.464536976279901 0.709701105629689 3.51112896536173 9.7833228812403 -12.9885847368635 23.6112348380402 0 0 0 0 0 5.38446944090811 -14.9831704978501 8.25344321517067 16.2343078079881 0 0 0 0 0 21.2544178324287 5.62202927626884 -0.898104436508671 -82.1231141649176 0 0 -8.63659711023414 4.80961781794193 -0.684302229958577 13.5245574072451 4.33671032172039 -6.01738440188094 -19.3724365146032 0 0 11.1641590422231 -0.38245073460173 5.77425723264372 0 0 0 0 0 0
215.344438707829 0 14.6261470843107 0 -10.7743104791612 0 0 17.2868181109428 0 -3.85036453128906 4.48451154335975 -0.124429544144667 -2.026509499299 -0.656082480756335 -0.401339909001099 2.65694177227309 0.684505854213381 0.685823896155408 2.53221403330854 8.97801811095102 -12.3280300354917 17.2134649443809 0 0 0 0 0 6.71099669136975 -19.403969596452 11.4145303897351 22.4744949922114 0 0 0 0 0 25.0955514098667 3.55438600868389 -2.05483592293886 -85.6570608716714 0 0 -1.30556140161474 2.49234421921255 -1.87479215815167 9.72743864622147 2.90083203452847 -5.14548360327495 -19.3146531142249 0 0 13.2898666259616 -1.16192255398642 5.24475855189448 0 0 0 0 0 0
215.957878164947 0 14.796796194464 0 -10.4683445286732 0 0 17.2907711744308 0 -3.15026944446794 5.80462817904083 -0.615804421808588 -1.62914569977868 -0.539703551940204 -0.374490179737129 4.19499700303516 1.14488265248103 0.440795004900264 1.64280366433658 8.36154787091516 -11.6875752409601 9.26112862770116 0 0 0 0 0 7.25811017778705 -23.1677676107997 14.8682899731347 28.8461906387141 0 0 0 0 0 30.4152403355153 0.362215091385098 -4.04770096449833 -84.9220573848972 0 0 6.20438225796762 0.145918703377286 -3.79038430676026 6.45838640143486 1.65501467247194 -4.34766682857712 -18.2509331132654 0 0 14.7681514591565 -1.85550828166196 4.74154979588021 0 0 0 0 0 0
